<?xml version="1.0" encoding="iso-8859-1"?>
<!-- Generator: Adobe Illustrator 19.0.0, SVG Export Plug-In . SVG Version: 6.00 Build 0)  -->
<svg version="1.1" id="Capa_1" xmlns="http://www.w3.org/2000/svg" xmlns:xlink="http://www.w3.org/1999/xlink" x="0px" y="0px"
	 viewBox="0 0 512 512" style="enable-background:new 0 0 512 512;" xml:space="preserve">
<circle style="fill:#FFD15C;" cx="256" cy="256" r="256"/>
<circle style="fill:#F7B64C;" cx="256" cy="256" r="208"/>
<path style="fill:#415A6B;" d="M512,256c0,8.533,0,16-1.067,24.533h-230.4v230.4C272,512,264.533,512,256,512s-16,0-24.533-1.067
	v-230.4H1.067C0,272,0,264.533,0,256s0-16,1.067-24.533h230.4V1.067C240,0,247.467,0,256,0s16,0,24.533,1.067v230.4h230.4
	C512,240,512,247.467,512,256z"/>
<g>
	<path style="fill:#F05540;" d="M190.933,389.333c8.533-8.533,13.867-19.2,16-29.867c0,0-18.133,7.467-26.667,0
		c12.8-4.267,23.467-17.067,26.667-30.933c1.067-5.333,2.133-11.733,2.133-19.2c0-6.4,1.067-13.867,2.133-21.333
		c4.267-22.4,18.133-38.4,36.267-41.6l7.467,24.533C250.667,272,244.267,285.867,243.2,294.4
		c-1.067,5.333-1.067,10.667-2.133,17.067c0,7.467-1.067,16-3.2,23.467C233.6,360.533,214.4,381.867,190.933,389.333z"/>
	<path style="fill:#F05540;" d="M315.733,356.267c-2.133,18.133-11.733,32-19.2,41.6c-2.133,3.2-4.267,5.333-6.4,8.533
		c-5.333,6.4-10.667,12.8-13.867,19.2c-8.533,17.067-8.533,38.4,2.133,54.4c-20.267-6.4-25.6-23.467-25.6-23.467
		c-3.2,8.533-1.067,40.533-1.067,40.533c-17.067-25.6-18.133-59.733-3.2-87.467c5.333-9.6,11.733-17.067,18.133-24.533
		c2.133-2.133,4.267-5.333,6.4-7.467c7.467-9.6,11.733-18.133,12.8-24.533c1.067-7.467-2.133-16-8.533-27.733
		c-2.133-3.2-3.2-6.4-5.333-8.533c-5.333-8.533-10.667-18.133-14.933-28.8c-6.4-19.2-5.333-38.4,4.267-52.267l25.6,18.133
		c-4.267,6.4-3.2,16-1.067,23.467c3.2,7.467,7.467,14.933,11.733,22.4c2.133,3.2,4.267,6.4,6.4,9.6
		C309.333,321.067,317.867,338.133,315.733,356.267z"/>
</g>
<path style="fill:#F3705A;" d="M266.667,250.667c3.2,37.333-75.733,71.467-106.667,57.6c-58.667-21.333-12.8-41.6-7.467-74.667
	s-40.533-80,11.733-59.733C189.867,186.667,263.467,219.733,266.667,250.667z"/>
<path style="fill:#F05540;" d="M164.267,173.867c-24.533-9.6-27.733-4.267-24.533,6.4c5.333,20.267,20.267,36.267,37.333,41.6
	l89.6,28.8C263.467,219.733,189.867,186.667,164.267,173.867z"/>
<path style="fill:#F3705A;" d="M252.8,250.667c-3.2,37.333,75.733,71.467,106.667,57.6c58.667-21.333,12.8-41.6,7.467-74.667
	c-5.333-33.067,40.533-80-11.733-59.733C329.6,186.667,254.933,219.733,252.8,250.667z"/>
<path style="fill:#F05540;" d="M355.2,173.867c24.533-9.6,27.733-4.267,24.533,6.4c-5.333,20.267-20.267,36.267-37.333,41.6
	l-89.6,28.8C254.933,219.733,329.6,186.667,355.2,173.867z"/>
<path style="fill:#F3F3F3;" d="M272,221.867c-8.533-7.467-17.067-7.467-25.6,0c-6.4,6.4-9.6,17.067-9.6,29.867
	c0,11.733,3.2,21.333,8.533,27.733c9.6,7.467,18.133,7.467,27.733,0c5.333-6.4,8.533-17.067,8.533-27.733
	C281.6,240,278.4,229.333,272,221.867z"/>
<g>
</g>
<g>
</g>
<g>
</g>
<g>
</g>
<g>
</g>
<g>
</g>
<g>
</g>
<g>
</g>
<g>
</g>
<g>
</g>
<g>
</g>
<g>
</g>
<g>
</g>
<g>
</g>
<g>
</g>
</svg>
