<svg id="Layer_1" data-name="Layer 1" xmlns="http://www.w3.org/2000/svg" viewBox="0 0 59.6 59.6"><defs><style>.cls-1{fill:none;stroke:#231f20;stroke-linecap:round;stroke-linejoin:round;stroke-width:1.6px;}</style></defs><title>Skeleton</title><path class="cls-1" d="M950.73,740.25l8.45,8.45a6.26,6.26,0,0,0-.87,3.24c0,2.92,1.84,5.29,4.11,5.29s4.11-2.37,4.11-5.29c0-.1,0-0.2,0-0.3h0.3c2.92,0,5.29-1.84,5.29-4.11s-2.37-4.11-5.29-4.11a6.22,6.22,0,0,0-3.41,1l-6.59-6.59" transform="translate(-913.3 -698.43)"/><path class="cls-1" d="M930,711l-3.12-3.11a6.22,6.22,0,0,0,1-3.41c0-2.92-1.84-5.28-4.11-5.28s-4.11,2.37-4.11,5.28c0,0.1,0,.2,0,0.3h-0.3c-2.92,0-5.29,1.84-5.29,4.11s2.37,4.11,5.29,4.11a6.26,6.26,0,0,0,3.24-.87l4.13,4.13" transform="translate(-913.3 -698.43)"/><path class="cls-1" d="M929.42,737.79l-6.62,6.62a6.23,6.23,0,0,0-3.41-1c-2.92,0-5.29,1.84-5.29,4.11s2.37,4.11,5.29,4.11h0.3c0,0.1,0,.2,0,0.29,0,2.92,1.84,5.29,4.11,5.29s4.11-2.37,4.11-5.29a6.27,6.27,0,0,0-.87-3.24l8.48-8.48" transform="translate(-913.3 -698.43)"/><path class="cls-1" d="M959.74,716l3.84-3.84a6.28,6.28,0,0,0,3.24.87c2.92,0,5.29-1.84,5.29-4.11s-2.37-4.11-5.29-4.11h-0.3c0-.1,0-0.2,0-0.3,0-2.92-1.84-5.28-4.11-5.28s-4.11,2.36-4.11,5.28a6.22,6.22,0,0,0,1,3.41l-2.94,2.94" transform="translate(-913.3 -698.43)"/><path class="cls-1" d="M960.86,721.74c0-9-7.87-16.38-17.53-16.38s-17.53,7.35-17.53,16.38a15.52,15.52,0,0,0,3.35,9.63c-1,2.67-1.12,4.59-.46,5.71a2,2,0,0,0,1.49,1,37.68,37.68,0,0,1,5.64,2.31v1.84c0,0.48.25,1,3.32,1.64l0.63,0.13a21.63,21.63,0,0,0,3.2.36h0.6a22.66,22.66,0,0,0,3.8-.47l0.67-.15c2.28-.53,2.72-1,2.72-1.5v-2a38.28,38.28,0,0,1,5.19-2.1l0.09,0a2.1,2.1,0,0,0,1.57-1c0.64-1.07.53-2.89-.34-5.41A15.52,15.52,0,0,0,960.86,721.74Z" transform="translate(-913.3 -698.43)"/><path class="cls-1" d="M949.53,747.26a6.93,6.93,0,0,1-12.59,0" transform="translate(-913.3 -698.43)"/><path class="cls-1" d="M940.63,727.88c0,1.84-1.85,2.62-4.13,2.62s-4.13-.78-4.13-2.62c0-1,1.85-3.32,4.13-3.32S940.63,726.24,940.63,727.88Z" transform="translate(-913.3 -698.43)"/><path class="cls-1" d="M946.09,727.88c0,1.84,1.85,2.62,4.13,2.62s4.13-.78,4.13-2.62c0-1-1.85-3.32-4.13-3.32S946.09,726.24,946.09,727.88Z" transform="translate(-913.3 -698.43)"/><path class="cls-1" d="M941,734.81s2.74-2.24,5.09.11" transform="translate(-913.3 -698.43)"/></svg>